<?xml version="1.0" encoding="utf-8"?>
<!-- Generator: Adobe Illustrator 22.1.0, SVG Export Plug-In . SVG Version: 6.00 Build 0)  -->
<svg version="1.1" id="图层_1" xmlns="http://www.w3.org/2000/svg" xmlns:xlink="http://www.w3.org/1999/xlink" x="0px" y="0px"
	 viewBox="0 0 1020.5 141.7" style="enable-background:new 0 0 1020.5 141.7;" xml:space="preserve">
<style type="text/css">
	.st0{fill:#00A1F1;}
	.st1{fill:#FFBB00;}
	.st2{fill:#777777;}
</style>
<g>
	<g>
		<path class="st0" d="M91.9,44.2l40.4,40.2l13.3-13.3l-40.4-40.2c-10.6-10.6-25.1-16.5-40-16.5c-15,0-29.4,5.9-40,16.5
			C14.5,41.5,8.6,55.9,8.6,71s5.9,29.4,16.5,40s24.9,16.5,40.1,16.5s29.4-5.9,40-16.7L91.9,97.5c-7.2,7.2-16.7,11.1-26.8,11.1
			s-19.6-3.9-26.8-11C31.2,90.5,27.3,81.1,27.3,71c0-6.9,1.9-13.6,5.3-19.3l26.1,26.1l13.4-13.4l-26.1-26c5.7-3.4,12.2-5.2,19.2-5.2
			C75.4,33.1,84.8,37,91.9,44.2z"/>
		<path class="st1" d="M199.7,30.7c-10.6-10.6-24.9-16.5-40-16.5c-15,0-29.4,5.9-40,16.5L133,44c7.2-7.2,16.5-11.1,26.8-11.1
			s19.6,3.9,26.8,11.1s11.1,16.5,11.1,26.8c0,6.9-1.8,13.4-5.2,19.2l-26.2-26.2l-13.4,13.4l26.2,26.2c-5.7,3.5-12.3,5.2-19.2,5.2
			c-10.1,0-19.6-3.9-26.8-11.1L92.5,57.3L79.2,70.7l40.7,40.2c10.6,10.7,24.8,16.6,40,16.6c15,0,29.3-5.9,39.9-16.7
			c10.6-10.6,16.5-25,16.5-40C216.3,55.8,210.4,41.3,199.7,30.7z"/>
	</g>
	<g>
		<path class="st2" d="M312.3,93.9h41.6v-9.4h-47.8c-1.4-3.2-2.2-6.2-2.7-8.5h50.4v-9.4h-50.9v-8.5h50.9v-9.4h-50.9v-8.5h50.9v-9.4
			H339v-9.4h-9.4v9.4h-62.8v-9.4h-9.4v9.4h-15.3v9.4h51.5v8.5h-51.4v9.4h51.4v8.7h-51.4v9.3h50.6c-0.4,2.3-1.2,5.3-2.7,8.5h-48V94
			H284c-7.1,7.9-19.7,14.8-41.9,14.8v9.4c30.9,0,46.1-12.3,53.5-24.2h5.1c7.4,11.9,22.5,24.2,53.4,24.2v-9.4
			C332,108.8,319.4,101.8,312.3,93.9z"/>
		<rect x="372.7" y="21.5" class="st2" width="9.4" height="15.1"/>
		<polygon class="st2" points="397.8,72.7 407.1,72.7 407.1,49.6 436.8,49.6 436.8,40.2 407.1,40.2 407.1,21.5 397.8,21.5 
			397.8,40.2 368.1,40.2 368.1,49.6 397.8,49.6 		"/>
		<rect x="422.7" y="21.5" class="st2" width="9.4" height="15.1"/>
		<path class="st2" d="M370.4,61.3v9.4c6.4,0,11.6-5.3,11.6-11.9v-5.7h-9.4V59C372.7,60.1,371.7,61.3,370.4,61.3z"/>
		<path class="st2" d="M422.7,53v7.1c0,6.4,5.3,11.6,11.6,11.6v-9.4c-1.1,0-2.3-0.9-2.3-2.3v-7.1h-9.3L422.7,53L422.7,53z"/>
		<path class="st2" d="M432,72.7h-9.4v7.1h-37.2v-7.1H376v7.1h-8v9.3h8v2.3c0,6.8,5.1,12.8,12.3,17.4c-0.2,0-0.5,0-0.7,0h-19.9v9.4
			h19.9c6.1,0,12.3-0.7,18.1-2c5,1.3,10.1,2,14.6,2H439v-9.4h-16.5c5.7-4.2,9.4-10,9.4-17.4v-2.3h7.1v-9.4h-7.1L432,72.7L432,72.7z
			 M422.7,91.4c0,7.6-7.8,12.3-17,14.9c-10.9-3.4-20.2-9.7-20.2-14.9v-2.3h37.2V91.4z"/>
		<path class="st2" d="M481.1,72.9V38.6h5.7v-9.4h-32.9c0.3-4,0.2-7.1,0.2-7.8l-9.4,0.2c0,3.7-0.2,14.6-3,19.9
			c-1.4,2.7-3.2,3.4-3.2,3.4l3,8.9c0.7-0.2,5.5-1.8,8.7-8.2c1-2.1,1.8-4.5,2.4-7.1h19.1v34c0,10.1-2.8,20.4-8.3,27.4
			c-5.9-5.5-9.1-12.9-9.1-20.3V54.2h-9.4v25.6c0,9.6,4,19.4,11.4,26.6c-2.8,1.5-5.9,2.4-9.3,2.4v9.4c6,0,12-1.9,17.2-5.8
			c6.2,3.6,13.8,5.8,22.5,5.8h0.2v-9.4c-6,0-11.2-1.2-15.6-3.3C477.3,97.9,481.1,87,481.1,72.9z"/>
		<polygon class="st2" points="574.1,21.5 564.7,21.5 564.7,29.3 524.1,29.3 524.1,38.6 615,38.6 615,29.3 574.1,29.3 		"/>
		<rect x="524.1" y="45.7" class="st2" width="90.9" height="9.4"/>
		<rect x="524.1" y="62.4" class="st2" width="90.9" height="9.4"/>
		<path class="st2" d="M513.6,22.4c-1.4,4.3-6.4,16.7-10.7,21.9c-4.1,5-7.1,7.1-7.1,7.1l5.3,7.8c0.4-0.2,2.8-1.8,6.2-5.6v64.5h9.4
			V40.2h-0.5c3.5-7,6.1-14.2,6.2-14.6L513.6,22.4z"/>
		<path class="st2" d="M607.9,78.6h-76.7c-3.9,0-7.1,3.2-7.1,7.1v25.6c0,3.9,3.2,7.1,7.1,7.1h78.1c3.2,0,5.7-2.5,5.7-5.7v-27
			C614.8,81.8,611.8,78.6,607.9,78.6z M605.6,109h-72.2V88h72.2V109z"/>
		<polygon class="st2" points="871.5,21.5 862.1,21.5 862.1,86.8 816.9,86.8 816.9,96.2 862.1,96.2 862.1,118.1 871.5,118.1 
			871.5,96.2 879.7,96.2 879.7,86.8 871.5,86.8 		"/>
		<polygon class="st2" points="762.5,32.7 783.1,32.7 783.1,42.5 762.5,42.5 762.5,51.9 783.1,51.9 783.1,118.1 792.4,118.1 
			792.4,51.9 808.9,51.9 808.9,42.5 792.4,42.5 792.4,32.7 808.9,32.7 808.9,23.3 762.5,23.3 		"/>
		<rect x="816.9" y="29.3" class="st2" width="39.5" height="9.4"/>
		<rect x="816.9" y="58.1" class="st2" width="39.5" height="9.4"/>
		<path class="st2" d="M766.9,105.3c0,4.8-2.3,5.7-3,5.9l1.4,9.1c3.7-0.5,10.7-4.6,11-15.1V57.6h-9.4V105.3z"/>
		<rect x="799.3" y="57.6" class="st2" width="9.4" height="60.5"/>
		<path class="st2" d="M1015.1,38.6v-9.4h-34.9v-7.8h-9.4v7.8h-30.6v9.4h30.6v15.5H940v9.4h59.2c2.3,0,4.3,0.9,5.5,2.5
			c1.1,1.6,1.4,3.4,0.7,5c-1.7,2.9-16,12.6-36.4,23c-10.8-7.8-20.5-16.4-20.7-16.6l-6.7,6.7c0.3,0.5,8.2,7.4,17.8,14.6
			c-7.6,3.6-15.8,7.2-24.4,10.5l3.4,8.7c9.5-3.7,19.8-8.2,29.7-13c0.8,0.5,1.5,1,2.3,1.5c17.4,11.4,40.9,11.6,43.4,11.6v-9.6
			c-0.9,0-20.8,0-35.9-8.5c18.6-9.7,33.8-19.6,35.9-25.5c1.8-4.8,1.1-9.6-1.6-13.7s-7.8-6.6-13-6.6h-19V38.6H1015.1z"/>
		<path class="st2" d="M936.3,65.8l-6.6-6.6l-6.9,6.9V38.6h12.8v-9.4h-12.8v-7.8h-9.4v7.8h-13.7v9.4h13.7v36.8l-1.1,1.1
			c-5.7,5.5-14.8,9.4-14.8,9.4l3.7,8.7c0.3-0.2,6.4-2.7,12.3-6.9v15.4c0,3.4-0.9,4.6-1.1,4.8c-1.1,0.9-4.8,0.9-8.2,0.9
			c-0.9,0-1.6,0-2.5,0v9.4c0.7,0,1.6,0,2.3,0c0.9,0,1.6,0,2.3,0c5,0,9.4-0.2,12.8-3.7c2.7-2.5,3.9-6.2,3.9-11.4V79.3L936.3,65.8z"/>
		<path class="st2" d="M632.3,99.9c0,6.2-4.1,7.8-4.8,8l2.5,9.1c4.1-1.1,11.6-6.2,11.6-17.1V88h-9.4v11.9H632.3z"/>
		<path class="st2" d="M739,101.9V88h-9.4v13.9c0,10.3,8.5,15.1,12.8,16.2l2.5-9.1C744.3,109,739,107.4,739,101.9z"/>
		<path class="st2" d="M657.9,103.1V88h-9.3v15.1c0,15.1,16.9,15.1,23.3,15.1h51.8v-9.4h-51.8C657.9,108.8,657.9,105.3,657.9,103.1z
			"/>
		<rect x="688.8" y="88" class="st2" width="9.4" height="17.4"/>
		<path class="st2" d="M635.8,80.9h100.7c2.5,0,4.6-2.1,4.6-4.6V33.2c0.2-2.5-2.1-4.6-4.6-4.6h-78.6v-7.1h-9.3v7.1h-12.8
			c-2.5,0-4.6,2.1-4.6,4.6v43.2C631.2,78.8,633.3,80.9,635.8,80.9z M731.9,57.4h-91.3v-5.3H732v5.3H731.9z M640.6,71.8v-5H732v5
			H640.6z M731.9,38v4.8h-91.3V38H731.9z"/>
	</g>
</g>
</svg>
